<svg xmlns="http://www.w3.org/2000/svg" width="48" height="48" viewBox="0 0 48 48" fill="none">
<g clip-path="url(#clip0_39_131)">
<path fill-rule="evenodd" clip-rule="evenodd" d="M24 8C15.16 8 8 15.16 8 24C8 31.08 12.58 37.06 18.94 39.18C19.74 39.32 20.04 38.84 20.04 38.42C20.04 38.04 20.02 36.78 20.02 35.44C16 36.18 14.96 34.46 14.64 33.56C14.46 33.1 13.68 31.68 13 31.3C12.44 31 11.64 30.26 12.98 30.24C14.24 30.22 15.14 31.4 15.44 31.88C16.88 34.3 19.18 33.62 20.1 33.2C20.24 32.16 20.66 31.46 21.12 31.06C17.56 30.66 13.84 29.28 13.84 23.16C13.84 21.42 14.46 19.98 15.48 18.86C15.32 18.46 14.76 16.82 15.64 14.62C15.64 14.62 16.98 14.2 20.04 16.26C21.32 15.9 22.68 15.72 24.04 15.72C25.4 15.72 26.76 15.9 28.04 16.26C31.1 14.18 32.44 14.62 32.44 14.62C33.32 16.82 32.76 18.46 32.6 18.86C33.62 19.98 34.24 21.4 34.24 23.16C34.24 29.3 30.5 30.66 26.94 31.06C27.52 31.56 28.02 32.52 28.02 34.02C28.02 36.16 28 37.88 28 38.42C28 38.84 28.3 39.34 29.1 39.18C32.2763 38.1077 35.0363 36.0664 36.9917 33.3432C38.947 30.6201 39.9991 27.3524 40 24C40 15.16 32.84 8 24 8Z" fill="black"/>
</g>
<defs>
<clipPath id="clip0_39_131">
<rect width="32" height="32" fill="white" transform="translate(8 8)"/>
</clipPath>
</defs>
</svg>