<svg width="142" height="56" viewBox="0 0 142 56" fill="none" xmlns="http://www.w3.org/2000/svg">
<path d="M84.494 14.8835C80.9455 11.311 76.7327 8.47696 72.0964 6.54353C67.4599 4.6101 62.4908 3.61499 57.4724 3.61499C52.4539 3.61499 47.4848 4.6101 42.8483 6.54353C38.212 8.47696 33.9992 11.311 30.4507 14.8835L57.4724 42.0878L84.494 14.8835Z" fill="#FFD200"/>
<path d="M57.5061 42.127C61.0546 45.6996 65.2673 48.5334 69.9038 50.4669C74.5401 52.4003 79.5093 53.3954 84.5278 53.3954C89.546 53.3954 94.5159 52.4003 99.1521 50.4669C103.788 48.5334 108.001 45.6996 111.55 42.127L84.5278 14.9226L57.5061 42.127Z" fill="#06E07F"/>
<path d="M57.4394 42.1209C53.8908 45.6935 49.678 48.5273 45.0417 50.4607C40.4053 52.3942 35.4361 53.3893 30.4177 53.3893C25.3992 53.3893 20.4301 52.3942 15.7936 50.4607C11.1573 48.5273 6.94454 45.6935 3.396 42.1209L30.4177 14.9165L57.4394 42.1209Z" fill="#E3073C"/>
<path d="M84.5608 14.8895C88.1089 11.3169 92.3221 8.48307 96.9583 6.54963C101.594 4.6162 106.564 3.62109 111.582 3.62109C116.601 3.62109 121.57 4.6162 126.206 6.54963C130.842 8.48307 135.055 11.3169 138.604 14.8895L111.582 42.0939L84.5608 14.8895Z" fill="#1F84EF"/>
</svg>
