<svg xmlns="http://www.w3.org/2000/svg" width="87" height="48" viewBox="0 0 87 48" fill="none">
<g clip-path="url(#clip0_39_130)">
<path d="M20.2481 17.328L15.7601 30H12.6401L8.1521 17.328H11.0561L14.2481 27.768L17.4881 17.328H20.2481ZM25.7587 24.528C25.8387 25.76 26.1907 26.688 26.8147 27.312C27.4547 27.92 28.2547 28.224 29.2147 28.224C29.8067 28.224 30.3667 28.136 30.8947 27.96C31.4387 27.768 31.9907 27.488 32.5507 27.12L33.7027 28.752C33.1107 29.248 32.4147 29.632 31.6147 29.904C30.8147 30.176 29.9747 30.312 29.0947 30.312C27.1587 30.312 25.6547 29.712 24.5827 28.512C23.5107 27.296 22.9747 25.68 22.9747 23.664C22.9747 22.4 23.2067 21.264 23.6707 20.256C24.1347 19.232 24.8067 18.432 25.6867 17.856C26.5667 17.28 27.5907 16.992 28.7587 16.992C30.4387 16.992 31.7667 17.56 32.7427 18.696C33.7347 19.816 34.2307 21.36 34.2307 23.328C34.2307 23.808 34.2067 24.208 34.1587 24.528H25.7587ZM28.7827 18.984C27.9187 18.984 27.2147 19.296 26.6707 19.92C26.1267 20.544 25.8147 21.472 25.7347 22.704H31.6147C31.5827 21.504 31.3267 20.584 30.8467 19.944C30.3667 19.304 29.6787 18.984 28.7827 18.984ZM43.4854 26.544C43.4854 27.616 44.1254 28.152 45.4054 28.152C46.0454 28.152 46.7174 28.008 47.4214 27.72L48.0934 29.592C47.2134 30.072 46.1254 30.312 44.8294 30.312C43.5654 30.312 42.5734 29.96 41.8534 29.256C41.1494 28.536 40.7974 27.552 40.7974 26.304V14.208H36.9814V12.24H43.4854V26.544ZM57.396 16.992C59.22 16.992 60.628 17.592 61.62 18.792C62.612 19.976 63.108 21.592 63.108 23.64C63.108 25.688 62.604 27.312 61.596 28.512C60.588 29.712 59.18 30.312 57.372 30.312C55.548 30.312 54.132 29.728 53.124 28.56C52.132 27.376 51.636 25.744 51.636 23.664C51.636 21.648 52.14 20.032 53.148 18.816C54.172 17.6 55.588 16.992 57.396 16.992ZM57.396 19.08C56.42 19.08 55.684 19.456 55.188 20.208C54.708 20.96 54.468 22.112 54.468 23.664C54.468 25.232 54.708 26.392 55.188 27.144C55.668 27.88 56.396 28.248 57.372 28.248C58.348 28.248 59.076 27.872 59.556 27.12C60.036 26.368 60.276 25.208 60.276 23.64C60.276 22.088 60.036 20.944 59.556 20.208C59.076 19.456 58.356 19.08 57.396 19.08ZM78.0746 17.952C77.6106 18.112 77.0826 18.224 76.4906 18.288C75.9146 18.336 75.2186 18.36 74.4026 18.36C75.1706 18.712 75.7466 19.152 76.1306 19.68C76.5146 20.208 76.7066 20.848 76.7066 21.6C76.7066 22.432 76.4986 23.168 76.0826 23.808C75.6826 24.448 75.1066 24.952 74.3546 25.32C73.6026 25.688 72.7146 25.872 71.6906 25.872C70.9706 25.872 70.3946 25.8 69.9626 25.656C69.7866 25.784 69.6506 25.944 69.5546 26.136C69.4586 26.312 69.4106 26.504 69.4106 26.712C69.4106 27.352 69.9306 27.672 70.9706 27.672H73.1786C74.0746 27.672 74.8746 27.824 75.5786 28.128C76.2826 28.432 76.8266 28.856 77.2106 29.4C77.6106 29.928 77.8106 30.528 77.8106 31.2C77.8106 32.464 77.2666 33.44 76.1786 34.128C75.0906 34.832 73.5226 35.184 71.4746 35.184C70.0506 35.184 68.9226 35.032 68.0906 34.728C67.2746 34.44 66.6906 34.008 66.3386 33.432C66.0026 32.872 65.8346 32.144 65.8346 31.248H68.2346C68.2346 31.728 68.3226 32.104 68.4986 32.376C68.6906 32.664 69.0186 32.872 69.4826 33C69.9466 33.144 70.6186 33.216 71.4986 33.216C72.7786 33.216 73.6986 33.056 74.2586 32.736C74.8186 32.432 75.0986 31.976 75.0986 31.368C75.0986 30.856 74.8746 30.456 74.4266 30.168C73.9946 29.896 73.4026 29.76 72.6506 29.76H70.4666C69.3306 29.76 68.4666 29.528 67.8746 29.064C67.2986 28.6 67.0106 28.016 67.0106 27.312C67.0106 26.88 67.1306 26.464 67.3706 26.064C67.6106 25.664 67.9546 25.32 68.4026 25.032C67.6506 24.632 67.0986 24.152 66.7466 23.592C66.4106 23.016 66.2426 22.312 66.2426 21.48C66.2426 20.6 66.4666 19.824 66.9146 19.152C67.3626 18.464 67.9866 17.936 68.7866 17.568C69.5866 17.184 70.4986 16.992 71.5226 16.992C72.8986 17.008 73.9866 16.912 74.7866 16.704C75.6026 16.496 76.4666 16.168 77.3786 15.72L78.0746 17.952ZM71.5466 18.864C70.6986 18.864 70.0586 19.104 69.6266 19.584C69.1946 20.048 68.9786 20.68 68.9786 21.48C68.9786 22.296 69.1946 22.944 69.6266 23.424C70.0746 23.888 70.7226 24.12 71.5706 24.12C72.3706 24.12 72.9786 23.888 73.3946 23.424C73.8106 22.96 74.0186 22.296 74.0186 21.432C74.0186 19.72 73.1946 18.864 71.5466 18.864Z" fill="black"/>
</g>
<defs>
<clipPath id="clip0_39_130">
<rect width="71" height="24" fill="white" transform="translate(8 12)"/>
</clipPath>
</defs>
</svg>